<?xml version="1.0" encoding="UTF-8" standalone="no"?>
<!DOCTYPE svg PUBLIC "-//W3C//DTD SVG 1.1//EN"
 "http://www.w3.org/Graphics/SVG/1.1/DTD/svg11.dtd">
<!-- Generated by graphviz version 2.40.1 (20161225.0304)
 -->
<!-- Title: %3 Pages: 1 -->
<svg width="2778pt" height="620pt"
 viewBox="0.00 0.00 2777.50 620.00" xmlns="http://www.w3.org/2000/svg" xmlns:xlink="http://www.w3.org/1999/xlink">
<g id="graph0" class="graph" transform="scale(1 1) rotate(0) translate(4 616)">
<title>%3</title>
<polygon fill="#ffffff" stroke="transparent" points="-4,4 -4,-616 2773.5,-616 2773.5,4 -4,4"/>
<!-- [root] aws_eip.nat (expand) -->
<g id="node1" class="node">
<title>[root] aws_eip.nat (expand)</title>
<polygon fill="none" stroke="#000000" points="488,-252 407,-252 407,-216 488,-216 488,-252"/>
<text text-anchor="middle" x="447.5" y="-230.3" font-family="Times,serif" font-size="14.00" fill="#000000">aws_eip.nat</text>
</g>
<!-- [root] data.aws_availability_zones.available (expand) -->
<g id="node22" class="node">
<title>[root] data.aws_availability_zones.available (expand)</title>
<polygon fill="none" stroke="#000000" points="500,-180 279,-180 279,-144 500,-144 500,-180"/>
<text text-anchor="middle" x="389.5" y="-158.3" font-family="Times,serif" font-size="14.00" fill="#000000">data.aws_availability_zones.available</text>
</g>
<!-- [root] aws_eip.nat (expand)&#45;&gt;[root] data.aws_availability_zones.available (expand) -->
<g id="edge1" class="edge">
<title>[root] aws_eip.nat (expand)&#45;&gt;[root] data.aws_availability_zones.available (expand)</title>
<path fill="none" stroke="#000000" d="M432.8642,-215.8314C426.1839,-207.5386 418.1432,-197.557 410.8096,-188.4533"/>
<polygon fill="#000000" stroke="#000000" points="413.3319,-186.0052 404.3329,-180.4133 407.8806,-190.3965 413.3319,-186.0052"/>
</g>
<!-- [root] var.name -->
<g id="node27" class="node">
<title>[root] var.name</title>
<polygon fill="none" stroke="#000000" points="757.5,-108 695.5,-108 695.5,-72 763.5,-72 763.5,-102 757.5,-108"/>
<polyline fill="none" stroke="#000000" points="757.5,-108 757.5,-102 "/>
<polyline fill="none" stroke="#000000" points="763.5,-102 757.5,-102 "/>
<text text-anchor="middle" x="729.5" y="-86.3" font-family="Times,serif" font-size="14.00" fill="#000000">var.name</text>
</g>
<!-- [root] aws_eip.nat (expand)&#45;&gt;[root] var.name -->
<g id="edge2" class="edge">
<title>[root] aws_eip.nat (expand)&#45;&gt;[root] var.name</title>
<path fill="none" stroke="#000000" d="M488.0717,-219.105C491.2523,-218.0258 494.4227,-216.9785 497.5,-216 554.6336,-197.8336 575.3023,-209.4902 627.5,-180 647.7553,-168.5563 648.158,-159.5077 665.5,-144 676.3809,-134.27 688.5717,-123.8656 699.3711,-114.8126"/>
<polygon fill="#000000" stroke="#000000" points="701.8768,-117.2803 707.3135,-108.1867 697.3926,-111.9051 701.8768,-117.2803"/>
</g>
<!-- [root] var.num_zones -->
<g id="node29" class="node">
<title>[root] var.num_zones</title>
<polygon fill="none" stroke="#000000" points="612.5,-180 518.5,-180 518.5,-144 618.5,-144 618.5,-174 612.5,-180"/>
<polyline fill="none" stroke="#000000" points="612.5,-180 612.5,-174 "/>
<polyline fill="none" stroke="#000000" points="618.5,-174 612.5,-174 "/>
<text text-anchor="middle" x="568.5" y="-158.3" font-family="Times,serif" font-size="14.00" fill="#000000">var.num_zones</text>
</g>
<!-- [root] aws_eip.nat (expand)&#45;&gt;[root] var.num_zones -->
<g id="edge3" class="edge">
<title>[root] aws_eip.nat (expand)&#45;&gt;[root] var.num_zones</title>
<path fill="none" stroke="#000000" d="M478.0334,-215.8314C493.5101,-206.6221 512.4869,-195.3301 529.0563,-185.4706"/>
<polygon fill="#000000" stroke="#000000" points="531.1724,-188.2843 537.9764,-180.1628 527.5929,-182.2687 531.1724,-188.2843"/>
</g>
<!-- [root] aws_eks_cluster.cluster (expand) -->
<g id="node2" class="node">
<title>[root] aws_eks_cluster.cluster (expand)</title>
<polygon fill="none" stroke="#000000" points="742,-324 597,-324 597,-288 742,-288 742,-324"/>
<text text-anchor="middle" x="669.5" y="-302.3" font-family="Times,serif" font-size="14.00" fill="#000000">aws_eks_cluster.cluster</text>
</g>
<!-- [root] aws_iam_role_policy_attachment.AmazonEKSClusterPolicy (expand) -->
<g id="node8" class="node">
<title>[root] aws_iam_role_policy_attachment.AmazonEKSClusterPolicy (expand)</title>
<polygon fill="none" stroke="#000000" points="856.5,-252 506.5,-252 506.5,-216 856.5,-216 856.5,-252"/>
<text text-anchor="middle" x="681.5" y="-230.3" font-family="Times,serif" font-size="14.00" fill="#000000">aws_iam_role_policy_attachment.AmazonEKSClusterPolicy</text>
</g>
<!-- [root] aws_eks_cluster.cluster (expand)&#45;&gt;[root] aws_iam_role_policy_attachment.AmazonEKSClusterPolicy (expand) -->
<g id="edge4" class="edge">
<title>[root] aws_eks_cluster.cluster (expand)&#45;&gt;[root] aws_iam_role_policy_attachment.AmazonEKSClusterPolicy (expand)</title>
<path fill="none" stroke="#000000" d="M672.5281,-287.8314C673.8115,-280.131 675.3376,-270.9743 676.7639,-262.4166"/>
<polygon fill="#000000" stroke="#000000" points="680.2394,-262.8526 678.4311,-252.4133 673.3347,-261.7018 680.2394,-262.8526"/>
</g>
<!-- [root] aws_iam_role_policy_attachment.AmazonEKSServicePolicy (expand) -->
<g id="node9" class="node">
<title>[root] aws_iam_role_policy_attachment.AmazonEKSServicePolicy (expand)</title>
<polygon fill="none" stroke="#000000" points="1763,-252 1412,-252 1412,-216 1763,-216 1763,-252"/>
<text text-anchor="middle" x="1587.5" y="-230.3" font-family="Times,serif" font-size="14.00" fill="#000000">aws_iam_role_policy_attachment.AmazonEKSServicePolicy</text>
</g>
<!-- [root] aws_eks_cluster.cluster (expand)&#45;&gt;[root] aws_iam_role_policy_attachment.AmazonEKSServicePolicy (expand) -->
<g id="edge5" class="edge">
<title>[root] aws_eks_cluster.cluster (expand)&#45;&gt;[root] aws_iam_role_policy_attachment.AmazonEKSServicePolicy (expand)</title>
<path fill="none" stroke="#000000" d="M742.2686,-289.39C745.3805,-288.8811 748.4674,-288.414 751.5,-288 1035.2483,-249.2676 1111.7779,-273.4533 1401.3559,-252.0595"/>
<polygon fill="#000000" stroke="#000000" points="1402.0379,-255.5182 1411.7477,-251.2791 1401.5136,-248.5379 1402.0379,-255.5182"/>
</g>
<!-- [root] aws_subnet.private (expand) -->
<g id="node19" class="node">
<title>[root] aws_subnet.private (expand)</title>
<polygon fill="none" stroke="#000000" points="389,-252 268,-252 268,-216 389,-216 389,-252"/>
<text text-anchor="middle" x="328.5" y="-230.3" font-family="Times,serif" font-size="14.00" fill="#000000">aws_subnet.private</text>
</g>
<!-- [root] aws_eks_cluster.cluster (expand)&#45;&gt;[root] aws_subnet.private (expand) -->
<g id="edge6" class="edge">
<title>[root] aws_eks_cluster.cluster (expand)&#45;&gt;[root] aws_subnet.private (expand)</title>
<path fill="none" stroke="#000000" d="M596.8066,-292.7792C544.2388,-282.9383 471.3086,-268.7122 398.795,-252.2396"/>
<polygon fill="#000000" stroke="#000000" points="399.5608,-248.8244 389.0322,-250.0075 398.0005,-255.6484 399.5608,-248.8244"/>
</g>
<!-- [root] aws_subnet.public (expand) -->
<g id="node20" class="node">
<title>[root] aws_subnet.public (expand)</title>
<polygon fill="none" stroke="#000000" points="250,-252 133,-252 133,-216 250,-216 250,-252"/>
<text text-anchor="middle" x="191.5" y="-230.3" font-family="Times,serif" font-size="14.00" fill="#000000">aws_subnet.public</text>
</g>
<!-- [root] aws_eks_cluster.cluster (expand)&#45;&gt;[root] aws_subnet.public (expand) -->
<g id="edge7" class="edge">
<title>[root] aws_eks_cluster.cluster (expand)&#45;&gt;[root] aws_subnet.public (expand)</title>
<path fill="none" stroke="#000000" d="M596.6397,-299.3578C516.2877,-291.3731 383.095,-276.1926 260.1847,-252.2134"/>
<polygon fill="#000000" stroke="#000000" points="260.7116,-248.7499 250.2229,-250.2458 259.3551,-255.6172 260.7116,-248.7499"/>
</g>
<!-- [root] var.endpoint_private_access -->
<g id="node25" class="node">
<title>[root] var.endpoint_private_access</title>
<polygon fill="none" stroke="#000000" points="1202.5,-252 1038.5,-252 1038.5,-216 1208.5,-216 1208.5,-246 1202.5,-252"/>
<polyline fill="none" stroke="#000000" points="1202.5,-252 1202.5,-246 "/>
<polyline fill="none" stroke="#000000" points="1208.5,-246 1202.5,-246 "/>
<text text-anchor="middle" x="1123.5" y="-230.3" font-family="Times,serif" font-size="14.00" fill="#000000">var.endpoint_private_access</text>
</g>
<!-- [root] aws_eks_cluster.cluster (expand)&#45;&gt;[root] var.endpoint_private_access -->
<g id="edge8" class="edge">
<title>[root] aws_eks_cluster.cluster (expand)&#45;&gt;[root] var.endpoint_private_access</title>
<path fill="none" stroke="#000000" d="M742.3123,-289.6711C745.4122,-289.0853 748.4846,-288.5252 751.5,-288 871.0033,-267.1871 904.7208,-271.4741 1028.2492,-252.1413"/>
<polygon fill="#000000" stroke="#000000" points="1029.1579,-255.541 1038.4862,-250.5177 1028.0614,-248.6275 1029.1579,-255.541"/>
</g>
<!-- [root] var.endpoint_public_access -->
<g id="node26" class="node">
<title>[root] var.endpoint_public_access</title>
<polygon fill="none" stroke="#000000" points="1388,-252 1227,-252 1227,-216 1394,-216 1394,-246 1388,-252"/>
<polyline fill="none" stroke="#000000" points="1388,-252 1388,-246 "/>
<polyline fill="none" stroke="#000000" points="1394,-246 1388,-246 "/>
<text text-anchor="middle" x="1310.5" y="-230.3" font-family="Times,serif" font-size="14.00" fill="#000000">var.endpoint_public_access</text>
</g>
<!-- [root] aws_eks_cluster.cluster (expand)&#45;&gt;[root] var.endpoint_public_access -->
<g id="edge9" class="edge">
<title>[root] aws_eks_cluster.cluster (expand)&#45;&gt;[root] var.endpoint_public_access</title>
<path fill="none" stroke="#000000" d="M742.2805,-289.4737C745.3891,-288.9419 748.4721,-288.4471 751.5,-288 953.7893,-258.1316 1009.8937,-279.1031 1216.9477,-251.9715"/>
<polygon fill="#000000" stroke="#000000" points="1217.4725,-255.4326 1226.9227,-250.6428 1216.5481,-248.4939 1217.4725,-255.4326"/>
</g>
<!-- [root] var.public_access_cidrs -->
<g id="node30" class="node">
<title>[root] var.public_access_cidrs</title>
<polygon fill="none" stroke="#000000" points="1014.5,-252 874.5,-252 874.5,-216 1020.5,-216 1020.5,-246 1014.5,-252"/>
<polyline fill="none" stroke="#000000" points="1014.5,-252 1014.5,-246 "/>
<polyline fill="none" stroke="#000000" points="1020.5,-246 1014.5,-246 "/>
<text text-anchor="middle" x="947.5" y="-230.3" font-family="Times,serif" font-size="14.00" fill="#000000">var.public_access_cidrs</text>
</g>
<!-- [root] aws_eks_cluster.cluster (expand)&#45;&gt;[root] var.public_access_cidrs -->
<g id="edge10" class="edge">
<title>[root] aws_eks_cluster.cluster (expand)&#45;&gt;[root] var.public_access_cidrs</title>
<path fill="none" stroke="#000000" d="M739.2923,-287.9243C778.3706,-277.8033 827.2469,-265.1447 867.8219,-254.6361"/>
<polygon fill="#000000" stroke="#000000" points="868.8759,-257.9786 877.679,-252.0831 867.1208,-251.2022 868.8759,-257.9786"/>
</g>
<!-- [root] aws_eks_node_group.nodegroup (expand) -->
<g id="node3" class="node">
<title>[root] aws_eks_node_group.nodegroup (expand)</title>
<polygon fill="none" stroke="#000000" points="1190,-396 995,-396 995,-360 1190,-360 1190,-396"/>
<text text-anchor="middle" x="1092.5" y="-374.3" font-family="Times,serif" font-size="14.00" fill="#000000">aws_eks_node_group.nodegroup</text>
</g>
<!-- [root] aws_eks_node_group.nodegroup (expand)&#45;&gt;[root] aws_eks_cluster.cluster (expand) -->
<g id="edge11" class="edge">
<title>[root] aws_eks_node_group.nodegroup (expand)&#45;&gt;[root] aws_eks_cluster.cluster (expand)</title>
<path fill="none" stroke="#000000" d="M994.8574,-364.1013C928.9984,-354.3587 839.9326,-340.4732 752.1924,-324.0758"/>
<polygon fill="#000000" stroke="#000000" points="752.8065,-320.63 742.3318,-322.2213 751.5126,-327.5094 752.8065,-320.63"/>
</g>
<!-- [root] aws_iam_role_policy.EKSClusterAutoscaler (expand) -->
<g id="node6" class="node">
<title>[root] aws_iam_role_policy.EKSClusterAutoscaler (expand)</title>
<polygon fill="none" stroke="#000000" points="2769.5,-324 2509.5,-324 2509.5,-288 2769.5,-288 2769.5,-324"/>
<text text-anchor="middle" x="2639.5" y="-302.3" font-family="Times,serif" font-size="14.00" fill="#000000">aws_iam_role_policy.EKSClusterAutoscaler</text>
</g>
<!-- [root] aws_eks_node_group.nodegroup (expand)&#45;&gt;[root] aws_iam_role_policy.EKSClusterAutoscaler (expand) -->
<g id="edge12" class="edge">
<title>[root] aws_eks_node_group.nodegroup (expand)&#45;&gt;[root] aws_iam_role_policy.EKSClusterAutoscaler (expand)</title>
<path fill="none" stroke="#000000" d="M1190.411,-377.289C1418.2075,-374.975 2001.5595,-365.2474 2499.0574,-324.0755"/>
<polygon fill="#000000" stroke="#000000" points="2499.643,-327.539 2509.3179,-323.2209 2499.0619,-320.5631 2499.643,-327.539"/>
</g>
<!-- [root] aws_iam_role_policy_attachment.AmazonEC2ContainerRegistryReadOnly (expand) -->
<g id="node7" class="node">
<title>[root] aws_iam_role_policy_attachment.AmazonEC2ContainerRegistryReadOnly (expand)</title>
<polygon fill="none" stroke="#000000" points="1306.5,-324 878.5,-324 878.5,-288 1306.5,-288 1306.5,-324"/>
<text text-anchor="middle" x="1092.5" y="-302.3" font-family="Times,serif" font-size="14.00" fill="#000000">aws_iam_role_policy_attachment.AmazonEC2ContainerRegistryReadOnly</text>
</g>
<!-- [root] aws_eks_node_group.nodegroup (expand)&#45;&gt;[root] aws_iam_role_policy_attachment.AmazonEC2ContainerRegistryReadOnly (expand) -->
<g id="edge13" class="edge">
<title>[root] aws_eks_node_group.nodegroup (expand)&#45;&gt;[root] aws_iam_role_policy_attachment.AmazonEC2ContainerRegistryReadOnly (expand)</title>
<path fill="none" stroke="#000000" d="M1092.5,-359.8314C1092.5,-352.131 1092.5,-342.9743 1092.5,-334.4166"/>
<polygon fill="#000000" stroke="#000000" points="1096.0001,-334.4132 1092.5,-324.4133 1089.0001,-334.4133 1096.0001,-334.4132"/>
</g>
<!-- [root] aws_iam_role_policy_attachment.AmazonEKSWorkerNodePolicy (expand) -->
<g id="node10" class="node">
<title>[root] aws_iam_role_policy_attachment.AmazonEKSWorkerNodePolicy (expand)</title>
<polygon fill="none" stroke="#000000" points="1706.5,-324 1324.5,-324 1324.5,-288 1706.5,-288 1706.5,-324"/>
<text text-anchor="middle" x="1515.5" y="-302.3" font-family="Times,serif" font-size="14.00" fill="#000000">aws_iam_role_policy_attachment.AmazonEKSWorkerNodePolicy</text>
</g>
<!-- [root] aws_eks_node_group.nodegroup (expand)&#45;&gt;[root] aws_iam_role_policy_attachment.AmazonEKSWorkerNodePolicy (expand) -->
<g id="edge14" class="edge">
<title>[root] aws_eks_node_group.nodegroup (expand)&#45;&gt;[root] aws_iam_role_policy_attachment.AmazonEKSWorkerNodePolicy (expand)</title>
<path fill="none" stroke="#000000" d="M1190.0759,-361.3913C1252.5041,-350.7653 1333.8073,-336.9264 1399.5299,-325.7396"/>
<polygon fill="#000000" stroke="#000000" points="1400.2527,-329.167 1409.5236,-324.0385 1399.0781,-322.2662 1400.2527,-329.167"/>
</g>
<!-- [root] aws_iam_role_policy_attachment.AmazonEKS_CNI_Policy (expand) -->
<g id="node11" class="node">
<title>[root] aws_iam_role_policy_attachment.AmazonEKS_CNI_Policy (expand)</title>
<polygon fill="none" stroke="#000000" points="2072,-324 1725,-324 1725,-288 2072,-288 2072,-324"/>
<text text-anchor="middle" x="1898.5" y="-302.3" font-family="Times,serif" font-size="14.00" fill="#000000">aws_iam_role_policy_attachment.AmazonEKS_CNI_Policy</text>
</g>
<!-- [root] aws_eks_node_group.nodegroup (expand)&#45;&gt;[root] aws_iam_role_policy_attachment.AmazonEKS_CNI_Policy (expand) -->
<g id="edge15" class="edge">
<title>[root] aws_eks_node_group.nodegroup (expand)&#45;&gt;[root] aws_iam_role_policy_attachment.AmazonEKS_CNI_Policy (expand)</title>
<path fill="none" stroke="#000000" d="M1190.1867,-369.885C1310.7808,-359.7873 1522.4441,-341.8049 1714.6307,-324.0749"/>
<polygon fill="#000000" stroke="#000000" points="1715.0016,-327.5556 1724.6371,-323.1504 1714.3575,-320.5853 1715.0016,-327.5556"/>
</g>
<!-- [root] aws_iam_role_policy_attachment.AmazonSSMManagedInstanceCore (expand) -->
<g id="node12" class="node">
<title>[root] aws_iam_role_policy_attachment.AmazonSSMManagedInstanceCore (expand)</title>
<polygon fill="none" stroke="#000000" points="2491,-324 2090,-324 2090,-288 2491,-288 2491,-324"/>
<text text-anchor="middle" x="2290.5" y="-302.3" font-family="Times,serif" font-size="14.00" fill="#000000">aws_iam_role_policy_attachment.AmazonSSMManagedInstanceCore</text>
</g>
<!-- [root] aws_eks_node_group.nodegroup (expand)&#45;&gt;[root] aws_iam_role_policy_attachment.AmazonSSMManagedInstanceCore (expand) -->
<g id="edge16" class="edge">
<title>[root] aws_eks_node_group.nodegroup (expand)&#45;&gt;[root] aws_iam_role_policy_attachment.AmazonSSMManagedInstanceCore (expand)</title>
<path fill="none" stroke="#000000" d="M1190.1246,-373.6864C1365.8294,-365.6987 1747.2331,-347.3381 2079.4214,-324.1354"/>
<polygon fill="#000000" stroke="#000000" points="2079.9991,-327.6036 2089.7298,-323.4127 2079.5095,-320.6208 2079.9991,-327.6036"/>
</g>
<!-- [root] var.node_pools -->
<g id="node28" class="node">
<title>[root] var.node_pools</title>
<polygon fill="none" stroke="#000000" points="854.5,-324 760.5,-324 760.5,-288 860.5,-288 860.5,-318 854.5,-324"/>
<polyline fill="none" stroke="#000000" points="854.5,-324 854.5,-318 "/>
<polyline fill="none" stroke="#000000" points="860.5,-318 854.5,-318 "/>
<text text-anchor="middle" x="810.5" y="-302.3" font-family="Times,serif" font-size="14.00" fill="#000000">var.node_pools</text>
</g>
<!-- [root] aws_eks_node_group.nodegroup (expand)&#45;&gt;[root] var.node_pools -->
<g id="edge17" class="edge">
<title>[root] aws_eks_node_group.nodegroup (expand)&#45;&gt;[root] var.node_pools</title>
<path fill="none" stroke="#000000" d="M1012.9999,-359.9413C972.8062,-350.529 923.0844,-338.4589 870.5036,-324.2061"/>
<polygon fill="#000000" stroke="#000000" points="871.2226,-320.7744 860.654,-321.5195 869.3805,-327.5277 871.2226,-320.7744"/>
</g>
<!-- [root] aws_iam_role.cluster (expand) -->
<g id="node4" class="node">
<title>[root] aws_iam_role.cluster (expand)</title>
<polygon fill="none" stroke="#000000" points="808,-180 675,-180 675,-144 808,-144 808,-180"/>
<text text-anchor="middle" x="741.5" y="-158.3" font-family="Times,serif" font-size="14.00" fill="#000000">aws_iam_role.cluster</text>
</g>
<!-- [root] provider[&quot;registry.terraform.io/hashicorp/aws&quot;] -->
<g id="node24" class="node">
<title>[root] provider[&quot;registry.terraform.io/hashicorp/aws&quot;]</title>
<polygon fill="none" stroke="#000000" points="401.5,-108 148.9633,-90 401.5,-72 654.0367,-90 401.5,-108"/>
<text text-anchor="middle" x="401.5" y="-86.3" font-family="Times,serif" font-size="14.00" fill="#000000">provider[&quot;registry.terraform.io/hashicorp/aws&quot;]</text>
</g>
<!-- [root] aws_iam_role.cluster (expand)&#45;&gt;[root] provider[&quot;registry.terraform.io/hashicorp/aws&quot;] -->
<g id="edge18" class="edge">
<title>[root] aws_iam_role.cluster (expand)&#45;&gt;[root] provider[&quot;registry.terraform.io/hashicorp/aws&quot;]</title>
<path fill="none" stroke="#000000" d="M674.7326,-147.861C617.3282,-135.7048 534.6495,-118.1964 475.2954,-105.6273"/>
<polygon fill="#000000" stroke="#000000" points="475.746,-102.1451 465.2378,-103.4974 474.2958,-108.9933 475.746,-102.1451"/>
</g>
<!-- [root] aws_iam_role.cluster (expand)&#45;&gt;[root] var.name -->
<g id="edge19" class="edge">
<title>[root] aws_iam_role.cluster (expand)&#45;&gt;[root] var.name</title>
<path fill="none" stroke="#000000" d="M738.4719,-143.8314C737.1885,-136.131 735.6624,-126.9743 734.2361,-118.4166"/>
<polygon fill="#000000" stroke="#000000" points="737.6653,-117.7018 732.5689,-108.4133 730.7606,-118.8526 737.6653,-117.7018"/>
</g>
<!-- [root] aws_iam_role.node (expand) -->
<g id="node5" class="node">
<title>[root] aws_iam_role.node (expand)</title>
<polygon fill="none" stroke="#000000" points="1904,-252 1781,-252 1781,-216 1904,-216 1904,-252"/>
<text text-anchor="middle" x="1842.5" y="-230.3" font-family="Times,serif" font-size="14.00" fill="#000000">aws_iam_role.node</text>
</g>
<!-- [root] aws_iam_role.node (expand)&#45;&gt;[root] provider[&quot;registry.terraform.io/hashicorp/aws&quot;] -->
<g id="edge20" class="edge">
<title>[root] aws_iam_role.node (expand)&#45;&gt;[root] provider[&quot;registry.terraform.io/hashicorp/aws&quot;]</title>
<path fill="none" stroke="#000000" d="M1780.7856,-217.5245C1777.9937,-216.9706 1775.2223,-216.4582 1772.5,-216 1579.4495,-183.506 1528.4904,-197.4089 1333.5,-180 1038.6702,-153.6773 691.7296,-119.2668 515.9741,-101.5915"/>
<polygon fill="#000000" stroke="#000000" points="516.2339,-98.1001 505.9337,-100.5812 515.533,-105.0649 516.2339,-98.1001"/>
</g>
<!-- [root] aws_iam_role.node (expand)&#45;&gt;[root] var.name -->
<g id="edge21" class="edge">
<title>[root] aws_iam_role.node (expand)&#45;&gt;[root] var.name</title>
<path fill="none" stroke="#000000" d="M1780.7337,-217.7989C1777.9558,-217.1708 1775.2016,-216.5677 1772.5,-216 1579.0082,-175.3397 1529.6538,-168.82 1333.5,-144 1124.6854,-117.578 873.6458,-99.4907 773.6874,-92.8345"/>
<polygon fill="#000000" stroke="#000000" points="773.8604,-89.3384 763.6512,-92.171 773.3985,-96.3232 773.8604,-89.3384"/>
</g>
<!-- [root] aws_iam_role_policy.EKSClusterAutoscaler (expand)&#45;&gt;[root] aws_iam_role.node (expand) -->
<g id="edge22" class="edge">
<title>[root] aws_iam_role_policy.EKSClusterAutoscaler (expand)&#45;&gt;[root] aws_iam_role.node (expand)</title>
<path fill="none" stroke="#000000" d="M2509.3016,-288.9516C2506.3408,-288.6248 2503.4038,-288.307 2500.5,-288 2287.8469,-265.5177 2035.6821,-247.1249 1914.5328,-238.8012"/>
<polygon fill="#000000" stroke="#000000" points="1914.4937,-235.2904 1904.2779,-238.0992 1914.0155,-242.2741 1914.4937,-235.2904"/>
</g>
<!-- [root] aws_iam_role_policy_attachment.AmazonEC2ContainerRegistryReadOnly (expand)&#45;&gt;[root] aws_iam_role.node (expand) -->
<g id="edge23" class="edge">
<title>[root] aws_iam_role_policy_attachment.AmazonEC2ContainerRegistryReadOnly (expand)&#45;&gt;[root] aws_iam_role.node (expand)</title>
<path fill="none" stroke="#000000" d="M1306.7284,-288.7C1309.671,-288.465 1312.5961,-288.2316 1315.5,-288 1515.323,-272.0649 1569.7869,-285.0617 1770.7925,-252.1412"/>
<polygon fill="#000000" stroke="#000000" points="1771.4934,-255.5729 1780.7874,-250.4865 1770.35,-248.6669 1771.4934,-255.5729"/>
</g>
<!-- [root] aws_iam_role_policy_attachment.AmazonEKSClusterPolicy (expand)&#45;&gt;[root] aws_iam_role.cluster (expand) -->
<g id="edge24" class="edge">
<title>[root] aws_iam_role_policy_attachment.AmazonEKSClusterPolicy (expand)&#45;&gt;[root] aws_iam_role.cluster (expand)</title>
<path fill="none" stroke="#000000" d="M696.6405,-215.8314C703.6217,-207.454 712.0391,-197.3531 719.6876,-188.1749"/>
<polygon fill="#000000" stroke="#000000" points="722.4425,-190.3362 726.1556,-180.4133 717.0649,-185.8548 722.4425,-190.3362"/>
</g>
<!-- [root] aws_iam_role_policy_attachment.AmazonEKSServicePolicy (expand)&#45;&gt;[root] aws_iam_role.cluster (expand) -->
<g id="edge25" class="edge">
<title>[root] aws_iam_role_policy_attachment.AmazonEKSServicePolicy (expand)&#45;&gt;[root] aws_iam_role.cluster (expand)</title>
<path fill="none" stroke="#000000" d="M1411.7384,-216.8326C1408.635,-216.551 1405.5534,-216.2733 1402.5,-216 1191.122,-197.0837 941.4693,-177.4135 818.2334,-167.8811"/>
<polygon fill="#000000" stroke="#000000" points="818.3833,-164.3823 808.1434,-167.1014 817.844,-171.3615 818.3833,-164.3823"/>
</g>
<!-- [root] aws_iam_role_policy_attachment.AmazonEKSWorkerNodePolicy (expand)&#45;&gt;[root] aws_iam_role.node (expand) -->
<g id="edge26" class="edge">
<title>[root] aws_iam_role_policy_attachment.AmazonEKSWorkerNodePolicy (expand)&#45;&gt;[root] aws_iam_role.node (expand)</title>
<path fill="none" stroke="#000000" d="M1606.1104,-287.9883C1652.8282,-278.4572 1710.9409,-266.2256 1770.7053,-252.3781"/>
<polygon fill="#000000" stroke="#000000" points="1771.7547,-255.7275 1780.7003,-250.0506 1770.167,-248.9099 1771.7547,-255.7275"/>
</g>
<!-- [root] aws_iam_role_policy_attachment.AmazonEKS_CNI_Policy (expand)&#45;&gt;[root] aws_iam_role.node (expand) -->
<g id="edge27" class="edge">
<title>[root] aws_iam_role_policy_attachment.AmazonEKS_CNI_Policy (expand)&#45;&gt;[root] aws_iam_role.node (expand)</title>
<path fill="none" stroke="#000000" d="M1884.3688,-287.8314C1877.9189,-279.5386 1870.1555,-269.557 1863.0748,-260.4533"/>
<polygon fill="#000000" stroke="#000000" points="1865.7236,-258.158 1856.8214,-252.4133 1860.1981,-262.4556 1865.7236,-258.158"/>
</g>
<!-- [root] aws_iam_role_policy_attachment.AmazonSSMManagedInstanceCore (expand)&#45;&gt;[root] aws_iam_role.node (expand) -->
<g id="edge28" class="edge">
<title>[root] aws_iam_role_policy_attachment.AmazonSSMManagedInstanceCore (expand)&#45;&gt;[root] aws_iam_role.node (expand)</title>
<path fill="none" stroke="#000000" d="M2178.3177,-287.9707C2095.5621,-274.6707 1985.4208,-256.9694 1914.2351,-245.5289"/>
<polygon fill="#000000" stroke="#000000" points="1914.4516,-242.0188 1904.0229,-243.8876 1913.3408,-248.9301 1914.4516,-242.0188"/>
</g>
<!-- [root] aws_internet_gateway.igw (expand) -->
<g id="node13" class="node">
<title>[root] aws_internet_gateway.igw (expand)</title>
<polygon fill="none" stroke="#000000" points="161,-324 0,-324 0,-288 161,-288 161,-324"/>
<text text-anchor="middle" x="80.5" y="-302.3" font-family="Times,serif" font-size="14.00" fill="#000000">aws_internet_gateway.igw</text>
</g>
<!-- [root] aws_vpc.vpc (expand) -->
<g id="node21" class="node">
<title>[root] aws_vpc.vpc (expand)</title>
<polygon fill="none" stroke="#000000" points="110,-180 23,-180 23,-144 110,-144 110,-180"/>
<text text-anchor="middle" x="66.5" y="-158.3" font-family="Times,serif" font-size="14.00" fill="#000000">aws_vpc.vpc</text>
</g>
<!-- [root] aws_internet_gateway.igw (expand)&#45;&gt;[root] aws_vpc.vpc (expand) -->
<g id="edge29" class="edge">
<title>[root] aws_internet_gateway.igw (expand)&#45;&gt;[root] aws_vpc.vpc (expand)</title>
<path fill="none" stroke="#000000" d="M78.7269,-287.7623C76.339,-263.201 72.0657,-219.2474 69.2566,-190.3541"/>
<polygon fill="#000000" stroke="#000000" points="72.71,-189.704 68.2587,-180.0896 65.7429,-190.3814 72.71,-189.704"/>
</g>
<!-- [root] aws_nat_gateway.nat (expand) -->
<g id="node14" class="node">
<title>[root] aws_nat_gateway.nat (expand)</title>
<polygon fill="none" stroke="#000000" points="386,-324 253,-324 253,-288 386,-288 386,-324"/>
<text text-anchor="middle" x="319.5" y="-302.3" font-family="Times,serif" font-size="14.00" fill="#000000">aws_nat_gateway.nat</text>
</g>
<!-- [root] aws_nat_gateway.nat (expand)&#45;&gt;[root] aws_eip.nat (expand) -->
<g id="edge30" class="edge">
<title>[root] aws_nat_gateway.nat (expand)&#45;&gt;[root] aws_eip.nat (expand)</title>
<path fill="none" stroke="#000000" d="M351.7998,-287.8314C368.3234,-278.5368 388.6186,-267.1208 406.2607,-257.1971"/>
<polygon fill="#000000" stroke="#000000" points="408.2107,-260.116 415.2105,-252.1628 404.7788,-254.015 408.2107,-260.116"/>
</g>
<!-- [root] aws_nat_gateway.nat (expand)&#45;&gt;[root] aws_subnet.public (expand) -->
<g id="edge31" class="edge">
<title>[root] aws_nat_gateway.nat (expand)&#45;&gt;[root] aws_subnet.public (expand)</title>
<path fill="none" stroke="#000000" d="M287.2002,-287.8314C270.6766,-278.5368 250.3814,-267.1208 232.7393,-257.1971"/>
<polygon fill="#000000" stroke="#000000" points="234.2212,-254.015 223.7895,-252.1628 230.7893,-260.116 234.2212,-254.015"/>
</g>
<!-- [root] aws_route_table.private (expand) -->
<g id="node15" class="node">
<title>[root] aws_route_table.private (expand)</title>
<polygon fill="none" stroke="#000000" points="392.5,-396 246.5,-396 246.5,-360 392.5,-360 392.5,-396"/>
<text text-anchor="middle" x="319.5" y="-374.3" font-family="Times,serif" font-size="14.00" fill="#000000">aws_route_table.private</text>
</g>
<!-- [root] aws_route_table.private (expand)&#45;&gt;[root] aws_nat_gateway.nat (expand) -->
<g id="edge32" class="edge">
<title>[root] aws_route_table.private (expand)&#45;&gt;[root] aws_nat_gateway.nat (expand)</title>
<path fill="none" stroke="#000000" d="M319.5,-359.8314C319.5,-352.131 319.5,-342.9743 319.5,-334.4166"/>
<polygon fill="#000000" stroke="#000000" points="323.0001,-334.4132 319.5,-324.4133 316.0001,-334.4133 323.0001,-334.4132"/>
</g>
<!-- [root] aws_route_table.public (expand) -->
<g id="node16" class="node">
<title>[root] aws_route_table.public (expand)</title>
<polygon fill="none" stroke="#000000" points="156,-396 13,-396 13,-360 156,-360 156,-396"/>
<text text-anchor="middle" x="84.5" y="-374.3" font-family="Times,serif" font-size="14.00" fill="#000000">aws_route_table.public</text>
</g>
<!-- [root] aws_route_table.public (expand)&#45;&gt;[root] aws_internet_gateway.igw (expand) -->
<g id="edge33" class="edge">
<title>[root] aws_route_table.public (expand)&#45;&gt;[root] aws_internet_gateway.igw (expand)</title>
<path fill="none" stroke="#000000" d="M83.4906,-359.8314C83.0628,-352.131 82.5541,-342.9743 82.0787,-334.4166"/>
<polygon fill="#000000" stroke="#000000" points="85.5724,-334.2037 81.523,-324.4133 78.5831,-334.592 85.5724,-334.2037"/>
</g>
<!-- [root] aws_route_table_association.private (expand) -->
<g id="node17" class="node">
<title>[root] aws_route_table_association.private (expand)</title>
<polygon fill="none" stroke="#000000" points="527,-468 314,-468 314,-432 527,-432 527,-468"/>
<text text-anchor="middle" x="420.5" y="-446.3" font-family="Times,serif" font-size="14.00" fill="#000000">aws_route_table_association.private</text>
</g>
<!-- [root] aws_route_table_association.private (expand)&#45;&gt;[root] aws_route_table.private (expand) -->
<g id="edge34" class="edge">
<title>[root] aws_route_table_association.private (expand)&#45;&gt;[root] aws_route_table.private (expand)</title>
<path fill="none" stroke="#000000" d="M395.0134,-431.8314C382.3341,-422.7927 366.8404,-411.7476 353.1945,-402.0198"/>
<polygon fill="#000000" stroke="#000000" points="355.1529,-399.1176 344.9784,-396.1628 351.0895,-404.8176 355.1529,-399.1176"/>
</g>
<!-- [root] aws_route_table_association.private (expand)&#45;&gt;[root] aws_subnet.private (expand) -->
<g id="edge35" class="edge">
<title>[root] aws_route_table_association.private (expand)&#45;&gt;[root] aws_subnet.private (expand)</title>
<path fill="none" stroke="#000000" d="M421.6241,-431.6069C422.7097,-400.0268 421.2064,-334.4171 394.5,-288 387.9168,-276.5581 377.9129,-266.5357 367.6698,-258.3321"/>
<polygon fill="#000000" stroke="#000000" points="369.5576,-255.3723 359.4645,-252.1506 365.3455,-260.9633 369.5576,-255.3723"/>
</g>
<!-- [root] aws_route_table_association.public (expand) -->
<g id="node18" class="node">
<title>[root] aws_route_table_association.public (expand)</title>
<polygon fill="none" stroke="#000000" points="296,-468 87,-468 87,-432 296,-432 296,-468"/>
<text text-anchor="middle" x="191.5" y="-446.3" font-family="Times,serif" font-size="14.00" fill="#000000">aws_route_table_association.public</text>
</g>
<!-- [root] aws_route_table_association.public (expand)&#45;&gt;[root] aws_route_table.public (expand) -->
<g id="edge36" class="edge">
<title>[root] aws_route_table_association.public (expand)&#45;&gt;[root] aws_route_table.public (expand)</title>
<path fill="none" stroke="#000000" d="M164.4994,-431.8314C151.0669,-422.7927 134.6527,-411.7476 120.1961,-402.0198"/>
<polygon fill="#000000" stroke="#000000" points="121.7425,-398.8418 111.492,-396.1628 117.8346,-404.6494 121.7425,-398.8418"/>
</g>
<!-- [root] aws_route_table_association.public (expand)&#45;&gt;[root] aws_subnet.public (expand) -->
<g id="edge37" class="edge">
<title>[root] aws_route_table_association.public (expand)&#45;&gt;[root] aws_subnet.public (expand)</title>
<path fill="none" stroke="#000000" d="M191.5,-431.9555C191.5,-394.3938 191.5,-307.5541 191.5,-262.4103"/>
<polygon fill="#000000" stroke="#000000" points="195.0001,-262.145 191.5,-252.1451 188.0001,-262.1451 195.0001,-262.145"/>
</g>
<!-- [root] aws_subnet.private (expand)&#45;&gt;[root] aws_vpc.vpc (expand) -->
<g id="edge38" class="edge">
<title>[root] aws_subnet.private (expand)&#45;&gt;[root] aws_vpc.vpc (expand)</title>
<path fill="none" stroke="#000000" d="M267.8474,-218.4075C215.8242,-205.0329 146.0073,-187.0826 119.87,-180.085"/>
<polygon fill="#000000" stroke="#000000" points="120.6799,-176.6777 110.1087,-177.3844 118.8133,-183.4242 120.6799,-176.6777"/>
</g>
<!-- [root] aws_subnet.private (expand)&#45;&gt;[root] data.aws_availability_zones.available (expand) -->
<g id="edge39" class="edge">
<title>[root] aws_subnet.private (expand)&#45;&gt;[root] data.aws_availability_zones.available (expand)</title>
<path fill="none" stroke="#000000" d="M343.8929,-215.8314C350.9904,-207.454 359.548,-197.3531 367.324,-188.1749"/>
<polygon fill="#000000" stroke="#000000" points="370.1061,-190.3056 373.8999,-180.4133 364.7652,-185.7807 370.1061,-190.3056"/>
</g>
<!-- [root] aws_subnet.private (expand)&#45;&gt;[root] var.num_zones -->
<g id="edge40" class="edge">
<title>[root] aws_subnet.private (expand)&#45;&gt;[root] var.num_zones</title>
<path fill="none" stroke="#000000" d="M388.7523,-215.9243C425.3054,-204.9584 471.7884,-191.0135 508.327,-180.0519"/>
<polygon fill="#000000" stroke="#000000" points="509.78,-183.2702 518.3525,-177.0442 507.7685,-176.5654 509.78,-183.2702"/>
</g>
<!-- [root] var.subnet_addtl_bits -->
<g id="node32" class="node">
<title>[root] var.subnet_addtl_bits</title>
<polygon fill="none" stroke="#000000" points="255,-180 128,-180 128,-144 261,-144 261,-174 255,-180"/>
<polyline fill="none" stroke="#000000" points="255,-180 255,-174 "/>
<polyline fill="none" stroke="#000000" points="261,-174 255,-174 "/>
<text text-anchor="middle" x="194.5" y="-158.3" font-family="Times,serif" font-size="14.00" fill="#000000">var.subnet_addtl_bits</text>
</g>
<!-- [root] aws_subnet.private (expand)&#45;&gt;[root] var.subnet_addtl_bits -->
<g id="edge41" class="edge">
<title>[root] aws_subnet.private (expand)&#45;&gt;[root] var.subnet_addtl_bits</title>
<path fill="none" stroke="#000000" d="M294.6861,-215.8314C277.2293,-206.4516 255.7513,-194.9112 237.1648,-184.9244"/>
<polygon fill="#000000" stroke="#000000" points="238.7686,-181.8129 228.303,-180.1628 235.4554,-187.9792 238.7686,-181.8129"/>
</g>
<!-- [root] aws_subnet.public (expand)&#45;&gt;[root] aws_vpc.vpc (expand) -->
<g id="edge42" class="edge">
<title>[root] aws_subnet.public (expand)&#45;&gt;[root] aws_vpc.vpc (expand)</title>
<path fill="none" stroke="#000000" d="M159.9572,-215.8314C143.8209,-206.5368 124.0014,-195.1208 106.7728,-185.1971"/>
<polygon fill="#000000" stroke="#000000" points="108.445,-182.1212 98.0327,-180.1628 104.9511,-188.187 108.445,-182.1212"/>
</g>
<!-- [root] aws_subnet.public (expand)&#45;&gt;[root] data.aws_availability_zones.available (expand) -->
<g id="edge43" class="edge">
<title>[root] aws_subnet.public (expand)&#45;&gt;[root] data.aws_availability_zones.available (expand)</title>
<path fill="none" stroke="#000000" d="M241.2082,-215.9243C268.2759,-206.0815 301.9439,-193.8386 330.3549,-183.5073"/>
<polygon fill="#000000" stroke="#000000" points="331.5695,-186.7899 339.7714,-180.0831 329.1773,-180.2114 331.5695,-186.7899"/>
</g>
<!-- [root] aws_subnet.public (expand)&#45;&gt;[root] var.num_zones -->
<g id="edge44" class="edge">
<title>[root] aws_subnet.public (expand)&#45;&gt;[root] var.num_zones</title>
<path fill="none" stroke="#000000" d="M250.2313,-217.796C253.0198,-217.1606 255.7865,-216.5578 258.5,-216 368.4581,-193.3968 398.8812,-204.195 508.5,-180 508.5996,-179.978 508.6992,-179.956 508.7989,-179.9338"/>
<polygon fill="#000000" stroke="#000000" points="509.3199,-183.4082 518.2277,-177.6722 507.6871,-176.6013 509.3199,-183.4082"/>
</g>
<!-- [root] aws_subnet.public (expand)&#45;&gt;[root] var.subnet_addtl_bits -->
<g id="edge45" class="edge">
<title>[root] aws_subnet.public (expand)&#45;&gt;[root] var.subnet_addtl_bits</title>
<path fill="none" stroke="#000000" d="M192.257,-215.8314C192.5779,-208.131 192.9594,-198.9743 193.316,-190.4166"/>
<polygon fill="#000000" stroke="#000000" points="196.8133,-190.5503 193.7328,-180.4133 189.8194,-190.2589 196.8133,-190.5503"/>
</g>
<!-- [root] aws_vpc.vpc (expand)&#45;&gt;[root] provider[&quot;registry.terraform.io/hashicorp/aws&quot;] -->
<g id="edge46" class="edge">
<title>[root] aws_vpc.vpc (expand)&#45;&gt;[root] provider[&quot;registry.terraform.io/hashicorp/aws&quot;]</title>
<path fill="none" stroke="#000000" d="M110.0509,-146.4121C112.8968,-145.5525 115.731,-144.7393 118.5,-144 181.982,-127.0515 254.8305,-113.2782 310.7176,-103.884"/>
<polygon fill="#000000" stroke="#000000" points="311.3057,-107.3344 320.5951,-102.2395 310.156,-100.4294 311.3057,-107.3344"/>
</g>
<!-- [root] aws_vpc.vpc (expand)&#45;&gt;[root] var.name -->
<g id="edge47" class="edge">
<title>[root] aws_vpc.vpc (expand)&#45;&gt;[root] var.name</title>
<path fill="none" stroke="#000000" d="M110.244,-145.9364C113.017,-145.2052 115.7845,-144.5493 118.5,-144 356.4304,-95.8678 424.0911,-148.137 663.5,-108 670.6671,-106.7984 678.1786,-105.1429 685.4603,-103.3192"/>
<polygon fill="#000000" stroke="#000000" points="686.4154,-106.6871 695.1937,-100.7547 684.6319,-99.9181 686.4154,-106.6871"/>
</g>
<!-- [root] var.vpc_cidr -->
<g id="node33" class="node">
<title>[root] var.vpc_cidr</title>
<polygon fill="none" stroke="#000000" points="103,-108 24,-108 24,-72 109,-72 109,-102 103,-108"/>
<polyline fill="none" stroke="#000000" points="103,-108 103,-102 "/>
<polyline fill="none" stroke="#000000" points="109,-102 103,-102 "/>
<text text-anchor="middle" x="66.5" y="-86.3" font-family="Times,serif" font-size="14.00" fill="#000000">var.vpc_cidr</text>
</g>
<!-- [root] aws_vpc.vpc (expand)&#45;&gt;[root] var.vpc_cidr -->
<g id="edge48" class="edge">
<title>[root] aws_vpc.vpc (expand)&#45;&gt;[root] var.vpc_cidr</title>
<path fill="none" stroke="#000000" d="M66.5,-143.8314C66.5,-136.131 66.5,-126.9743 66.5,-118.4166"/>
<polygon fill="#000000" stroke="#000000" points="70.0001,-118.4132 66.5,-108.4133 63.0001,-118.4133 70.0001,-118.4132"/>
</g>
<!-- [root] data.aws_availability_zones.available (expand)&#45;&gt;[root] provider[&quot;registry.terraform.io/hashicorp/aws&quot;] -->
<g id="edge49" class="edge">
<title>[root] data.aws_availability_zones.available (expand)&#45;&gt;[root] provider[&quot;registry.terraform.io/hashicorp/aws&quot;]</title>
<path fill="none" stroke="#000000" d="M392.5281,-143.8314C393.8313,-136.0125 395.3846,-126.6923 396.8297,-118.0221"/>
<polygon fill="#000000" stroke="#000000" points="400.3227,-118.3528 398.5144,-107.9134 393.418,-117.2019 400.3227,-118.3528"/>
</g>
<!-- [root] output.endpoint -->
<g id="node23" class="node">
<title>[root] output.endpoint</title>
<polygon fill="none" stroke="#000000" points="714.5,-468 618.5,-468 618.5,-432 720.5,-432 720.5,-462 714.5,-468"/>
<polyline fill="none" stroke="#000000" points="714.5,-468 714.5,-462 "/>
<polyline fill="none" stroke="#000000" points="720.5,-462 714.5,-462 "/>
<text text-anchor="middle" x="669.5" y="-446.3" font-family="Times,serif" font-size="14.00" fill="#000000">output.endpoint</text>
</g>
<!-- [root] output.endpoint&#45;&gt;[root] aws_eks_cluster.cluster (expand) -->
<g id="edge54" class="edge">
<title>[root] output.endpoint&#45;&gt;[root] aws_eks_cluster.cluster (expand)</title>
<path fill="none" stroke="#000000" d="M669.5,-431.7623C669.5,-407.201 669.5,-363.2474 669.5,-334.3541"/>
<polygon fill="#000000" stroke="#000000" points="673.0001,-334.0896 669.5,-324.0896 666.0001,-334.0897 673.0001,-334.0896"/>
</g>
<!-- [root] var.region -->
<g id="node31" class="node">
<title>[root] var.region</title>
<polygon fill="none" stroke="#000000" points="431.5,-36 365.5,-36 365.5,0 437.5,0 437.5,-30 431.5,-36"/>
<polyline fill="none" stroke="#000000" points="431.5,-36 431.5,-30 "/>
<polyline fill="none" stroke="#000000" points="437.5,-30 431.5,-30 "/>
<text text-anchor="middle" x="401.5" y="-14.3" font-family="Times,serif" font-size="14.00" fill="#000000">var.region</text>
</g>
<!-- [root] provider[&quot;registry.terraform.io/hashicorp/aws&quot;]&#45;&gt;[root] var.region -->
<g id="edge58" class="edge">
<title>[root] provider[&quot;registry.terraform.io/hashicorp/aws&quot;]&#45;&gt;[root] var.region</title>
<path fill="none" stroke="#000000" d="M401.5,-71.8314C401.5,-64.131 401.5,-54.9743 401.5,-46.4166"/>
<polygon fill="#000000" stroke="#000000" points="405.0001,-46.4132 401.5,-36.4133 398.0001,-46.4133 405.0001,-46.4132"/>
</g>
<!-- [root] meta.count&#45;boundary (EachMode fixup) -->
<g id="node34" class="node">
<title>[root] meta.count&#45;boundary (EachMode fixup)</title>
<ellipse fill="none" stroke="#000000" cx="669.5" cy="-522" rx="176.5689" ry="18"/>
<text text-anchor="middle" x="669.5" y="-518.3" font-family="Times,serif" font-size="14.00" fill="#000000">[root] meta.count&#45;boundary (EachMode fixup)</text>
</g>
<!-- [root] meta.count&#45;boundary (EachMode fixup)&#45;&gt;[root] aws_eks_node_group.nodegroup (expand) -->
<g id="edge50" class="edge">
<title>[root] meta.count&#45;boundary (EachMode fixup)&#45;&gt;[root] aws_eks_node_group.nodegroup (expand)</title>
<path fill="none" stroke="#000000" d="M720.5237,-504.6302C798.0956,-478.2228 945.5361,-428.0303 1029.6187,-399.4064"/>
<polygon fill="#000000" stroke="#000000" points="1030.9614,-402.6466 1039.2999,-396.1107 1028.7055,-396.0201 1030.9614,-402.6466"/>
</g>
<!-- [root] meta.count&#45;boundary (EachMode fixup)&#45;&gt;[root] aws_route_table_association.private (expand) -->
<g id="edge51" class="edge">
<title>[root] meta.count&#45;boundary (EachMode fixup)&#45;&gt;[root] aws_route_table_association.private (expand)</title>
<path fill="none" stroke="#000000" d="M610.4905,-504.937C575.242,-494.7447 530.2027,-481.7213 492.824,-470.913"/>
<polygon fill="#000000" stroke="#000000" points="493.578,-467.4877 482.9993,-468.0721 491.6335,-474.2122 493.578,-467.4877"/>
</g>
<!-- [root] meta.count&#45;boundary (EachMode fixup)&#45;&gt;[root] aws_route_table_association.public (expand) -->
<g id="edge52" class="edge">
<title>[root] meta.count&#45;boundary (EachMode fixup)&#45;&gt;[root] aws_route_table_association.public (expand)</title>
<path fill="none" stroke="#000000" d="M567.5808,-507.2303C496.8556,-496.9083 400.1749,-482.6546 306.1274,-468.2428"/>
<polygon fill="#000000" stroke="#000000" points="306.5689,-464.7697 296.1537,-466.7123 305.5071,-471.6887 306.5689,-464.7697"/>
</g>
<!-- [root] meta.count&#45;boundary (EachMode fixup)&#45;&gt;[root] output.endpoint -->
<g id="edge53" class="edge">
<title>[root] meta.count&#45;boundary (EachMode fixup)&#45;&gt;[root] output.endpoint</title>
<path fill="none" stroke="#000000" d="M669.5,-503.8314C669.5,-496.131 669.5,-486.9743 669.5,-478.4166"/>
<polygon fill="#000000" stroke="#000000" points="673.0001,-478.4132 669.5,-468.4133 666.0001,-478.4133 673.0001,-478.4132"/>
</g>
<!-- [root] provider[&quot;registry.terraform.io/hashicorp/aws&quot;] (close) -->
<g id="node35" class="node">
<title>[root] provider[&quot;registry.terraform.io/hashicorp/aws&quot;] (close)</title>
<ellipse fill="none" stroke="#000000" cx="247.5" cy="-522" rx="227.4596" ry="18"/>
<text text-anchor="middle" x="247.5" y="-518.3" font-family="Times,serif" font-size="14.00" fill="#000000">[root] provider[&quot;registry.terraform.io/hashicorp/aws&quot;] (close)</text>
</g>
<!-- [root] provider[&quot;registry.terraform.io/hashicorp/aws&quot;] (close)&#45;&gt;[root] aws_eks_node_group.nodegroup (expand) -->
<g id="edge55" class="edge">
<title>[root] provider[&quot;registry.terraform.io/hashicorp/aws&quot;] (close)&#45;&gt;[root] aws_eks_node_group.nodegroup (expand)</title>
<path fill="none" stroke="#000000" d="M368.415,-506.7C420.6167,-498.2171 481.8828,-485.7125 535.5,-468 570.2284,-456.5275 574.371,-442.1799 609.5,-432 677.6356,-412.2554 864.6417,-395.1515 984.9682,-385.7377"/>
<polygon fill="#000000" stroke="#000000" points="985.2551,-389.2261 994.954,-384.9621 984.7129,-382.2471 985.2551,-389.2261"/>
</g>
<!-- [root] provider[&quot;registry.terraform.io/hashicorp/aws&quot;] (close)&#45;&gt;[root] aws_route_table_association.private (expand) -->
<g id="edge56" class="edge">
<title>[root] provider[&quot;registry.terraform.io/hashicorp/aws&quot;] (close)&#45;&gt;[root] aws_route_table_association.private (expand)</title>
<path fill="none" stroke="#000000" d="M290.2641,-504.2022C313.6873,-494.4539 342.9168,-482.289 367.7467,-471.9551"/>
<polygon fill="#000000" stroke="#000000" points="369.1387,-475.1669 377.0263,-468.0931 366.4491,-468.7042 369.1387,-475.1669"/>
</g>
<!-- [root] provider[&quot;registry.terraform.io/hashicorp/aws&quot;] (close)&#45;&gt;[root] aws_route_table_association.public (expand) -->
<g id="edge57" class="edge">
<title>[root] provider[&quot;registry.terraform.io/hashicorp/aws&quot;] (close)&#45;&gt;[root] aws_route_table_association.public (expand)</title>
<path fill="none" stroke="#000000" d="M233.3688,-503.8314C226.9189,-495.5386 219.1555,-485.557 212.0748,-476.4533"/>
<polygon fill="#000000" stroke="#000000" points="214.7236,-474.158 205.8214,-468.4133 209.1981,-478.4556 214.7236,-474.158"/>
</g>
<!-- [root] root -->
<g id="node36" class="node">
<title>[root] root</title>
<ellipse fill="none" stroke="#000000" cx="458.5" cy="-594" rx="47.3916" ry="18"/>
<text text-anchor="middle" x="458.5" y="-590.3" font-family="Times,serif" font-size="14.00" fill="#000000">[root] root</text>
</g>
<!-- [root] root&#45;&gt;[root] meta.count&#45;boundary (EachMode fixup) -->
<g id="edge59" class="edge">
<title>[root] root&#45;&gt;[root] meta.count&#45;boundary (EachMode fixup)</title>
<path fill="none" stroke="#000000" d="M493.8167,-581.9488C525.1555,-571.255 571.6157,-555.4013 608.8878,-542.6828"/>
<polygon fill="#000000" stroke="#000000" points="610.3086,-545.8963 618.6424,-539.3543 608.0479,-539.2713 610.3086,-545.8963"/>
</g>
<!-- [root] root&#45;&gt;[root] provider[&quot;registry.terraform.io/hashicorp/aws&quot;] (close) -->
<g id="edge60" class="edge">
<title>[root] root&#45;&gt;[root] provider[&quot;registry.terraform.io/hashicorp/aws&quot;] (close)</title>
<path fill="none" stroke="#000000" d="M423.1833,-581.9488C392.0598,-571.3285 346.0222,-555.619 308.882,-542.9455"/>
<polygon fill="#000000" stroke="#000000" points="309.75,-539.5436 299.1554,-539.6265 307.4893,-546.1685 309.75,-539.5436"/>
</g>
</g>
</svg>
